<svg width="35" height="40" viewBox="0 0 35 40" fill="none" xmlns="http://www.w3.org/2000/svg">
<g clip-path="url(#clip0)">
<path d="M17.2875 6.10632H16.2247V15.5746H17.2875V6.10632Z" fill="white"/>
<path d="M17.2875 24.837H16.2247V33.6192H17.2875V24.837Z" fill="white"/>
<path d="M11.5478 21.2998L10.6504 21.8512L16.4019 25.3849L17.2992 24.8336L11.5478 21.2998Z" fill="white"/>
<path d="M16.3899 15.0257L17.3925 15.3672L4.37033 29.8014L3.36777 29.46L16.3899 15.0257Z" fill="white"/>
<path d="M13.8635 10.9075L12.8609 10.566L0.00133404 24.8201L1.00389 25.1616L13.8635 10.9075Z" fill="white"/>
<path d="M3.4008 29.2967V30.3259H14.0488V29.2967H3.4008Z" fill="white"/>
<path d="M3.4008 10.223V11.2521H14.0488V10.223H3.4008Z" fill="white"/>
<path d="M0.897401 15.0177L3.05176e-05 15.5691L5.38026 18.8748L6.27763 18.3234L0.897401 15.0177Z" fill="white"/>
<path d="M1.06414 24.837H0.00138855V33.2075H1.06414V24.837Z" fill="white"/>
<path d="M1.06275 6.89008H0V15.6042H1.06275V6.89008Z" fill="white"/>
<path d="M0.840451 32.6057L0.00138855 33.2373L8.98517 40L9.82423 39.3684L0.840451 32.6057Z" fill="white"/>
<path d="M8.17038 39.3475L9.00945 39.9791L17.3589 33.6939L16.5198 33.0623L8.17038 39.3475Z" fill="white"/>
<path d="M16.3431 6.72837L17.1827 6.09747L9.06779 1.67539e-05L8.22815 0.630914L16.3431 6.72837Z" fill="white"/>
<path d="M9.88318 0.651772L9.04353 0.020874L0.0013923 6.81501L0.841038 7.44591L9.88318 0.651772Z" fill="white"/>
<path d="M24.025 0.816103L23.3775 0L17.3583 7.58682L18.0058 8.40292L24.025 0.816103Z" fill="white"/>
<path d="M18.1789 15.0662L17.3594 15.7215L18.6706 16.77L19.49 16.1147L18.1789 15.0662Z" fill="white"/>
<path d="M19.6796 22.7456L18.7133 22.3172L17.3595 24.2704L18.3258 24.6988L19.6796 22.7456Z" fill="white"/>
<path d="M18.4222 24.2589H17.3594V32.4285H18.4222V24.2589Z" fill="white"/>
<path d="M18.5628 16.1235V22.9846H19.6255V16.1235H18.5628Z" fill="white"/>
<path d="M18.0069 31.5971L17.3594 32.4132L23.3787 40L24.0261 39.1839L18.0069 31.5971Z" fill="white"/>
<path d="M24.5028 0H23.4401V39.8444H24.5028V0Z" fill="white"/>
<path d="M33.9233 32.3876H34.986V24.2812H33.9233V32.3876Z" fill="white"/>
<path d="M28.322 39.1839L28.9694 40L34.9887 32.4132L34.3412 31.5971L28.322 39.1839Z" fill="white"/>
<path d="M34.3401 8.40293L34.9875 7.58682L28.9683 1.44166e-06L28.3208 0.816105L34.3401 8.40293Z" fill="white"/>
<path d="M34.1681 24.9338L34.9875 24.2785L33.6235 23.1877L32.8041 23.843L34.1681 24.9338Z" fill="white"/>
<path d="M32.6673 17.2544L33.6337 17.6828L34.9875 15.7296L34.0212 15.3012L32.6673 17.2544Z" fill="white"/>
<path d="M33.9248 15.7411H34.9875V7.57145H33.9248V15.7411Z" fill="white"/>
<path d="M33.7828 23.8765V17.0154H32.72V23.8765H33.7828Z" fill="white"/>
<path d="M27.8441 40H28.9069L28.9069 0.155609H27.8441L27.8441 40Z" fill="white"/>
<path d="M27.87 15.9218H23.8548V16.9509H27.87V15.9218Z" fill="white"/>
<path d="M27.87 21.3624H23.8548V22.3916H27.87V21.3624Z" fill="white"/>
<path d="M18.4237 7.61243H17.361V15.7188H18.4237V7.61243Z" fill="white"/>
</g>
<defs>
<clipPath id="clip0">
<rect width="35" height="40" fill="white"/>
</clipPath>
</defs>
</svg>
